<?xml version="1.0" encoding="utf-8"?>
<!-- Generator: Adobe Illustrator 19.0.0, SVG Export Plug-In . SVG Version: 6.00 Build 0)  -->
<svg version="1.1" id="layer" xmlns="http://www.w3.org/2000/svg" xmlns:xlink="http://www.w3.org/1999/xlink" x="0px" y="0px"
	 viewBox="-153 -46 652 652" style="enable-background:new -153 -46 652 652;" xml:space="preserve">
<style type="text/css">
	.st0{fill:#231815;}
</style>
<g>
	<path class="st0" d="M1.8,360.9c-7.6,20.1-28.1,36.5-57.7,36.5c-49.7,0-75.5-38.7-75.5-88.1c0-49.4,25.8-88.4,75.5-88.4
		c29.6,0,50.1,16.3,57.7,36.8v-104h45.5v239.1H1.8V360.9z M2.1,305.9c0-30.4-18.6-49.4-44.4-49.4c-28.5,0-43.3,20.9-43.3,52.8
		c0,31.5,14.8,52.4,43.3,52.4c25.8,0,44.4-18.6,44.4-49.4V305.9z"/>
	<path class="st0" d="M116.8,392.8H71.2V225.4h45.5v27.3c8.3-19,29.6-31.9,54.7-31.9c44.8,0,61.1,30.4,61.1,67.6v104.4H187v-95.3
		c0-25.8-10.2-40.6-32.6-40.6c-23.2,0-37.6,18.2-37.6,46.3V392.8z"/>
	<path class="st0" d="M423.4,153.7h45.2l-59.6,239.1h-45.2l7.2-29.2c-12.1,20.5-33.8,33.8-60.4,33.8c-41,0-61.9-27.3-61.9-66.4
		c0-55,35.7-110.1,94.9-110.1c28.1,0,48.2,14,54.3,34.9L423.4,153.7z M385.4,307.8c8.7-30.4-6.5-52.4-33.4-52.4
		c-33.8,0-55.4,33-55.4,70.2c0,23.5,12.1,36.5,35.3,36.5c23.5,0,44-17.1,50.9-43.7L385.4,307.8z"/>
</g>
</svg>
